<svg width="421" height="580" viewBox="0 0 421 580" fill="none" xmlns="http://www.w3.org/2000/svg">
<path d="M310.698 410.065C309.495 412.976 308.325 415.901 307.19 418.839C300.207 421.173 293.16 423.247 286.064 425.062L284.731 255.275L283.926 255.282L283.926 255.195L251.763 255.447L252.249 317.392C252.297 323.499 251.36 329.069 249.437 334.101C247.514 339.206 244.677 343.59 240.926 347.255C237.175 350.92 232.582 353.756 227.146 355.762C221.783 357.84 215.686 358.905 208.853 358.959C208.709 358.96 208.564 358.961 208.42 358.961C202.951 358.717 197.977 357.768 193.499 356.113C188.032 354.193 183.395 351.43 179.587 347.824C175.779 344.219 172.873 339.879 170.871 334.805C168.869 329.804 167.844 324.25 167.796 318.142L167.31 256.198L166.614 256.203L166.613 256.116L134.342 256.37L135.668 425.248C128.325 423.389 121.034 421.253 113.81 418.839C112.676 415.9 111.506 412.976 110.302 410.065C106.969 401.994 105.285 397.923 102.373 394.203C99.4963 390.448 94.4443 386.658 84.3403 379.113C48.9621 352.618 22.8181 315.656 9.61415 273.468C-3.58978 231.279 -3.18385 186.003 10.7745 144.058C24.7327 102.113 51.5353 65.6267 87.3829 39.7705C123.231 13.9142 166.305 0 210.5 0C254.695 0 297.769 13.9142 333.617 39.7705C369.465 65.6267 396.267 102.113 410.226 144.058C424.184 186.003 424.59 231.279 411.386 273.468C398.182 315.656 372.038 352.618 336.66 379.113C326.556 386.658 321.504 390.448 318.627 394.203C315.772 397.85 314.132 401.799 310.896 409.589L310.698 410.065Z" fill="#F5CB5C"/>
<path d="M167.991 431.594L167.576 378.708C170.24 380.117 173.062 381.356 176.042 382.425C184.498 385.486 194.032 386.974 204.644 386.891C206.917 386.873 209.164 386.788 211.386 386.636C213.072 386.699 214.772 386.724 216.486 386.711C227.098 386.627 236.607 384.989 245.014 381.797C247.977 380.681 250.779 379.397 253.421 377.946L253.841 431.476C225.373 435.562 196.467 435.602 167.991 431.594Z" fill="#F5CB5C"/>
<path d="M135.071 497.097C138.123 515.591 139.842 534.331 140.263 553.176C140.299 555.667 141.013 558.102 142.33 560.217C143.647 562.332 145.516 564.047 147.736 565.178C167.223 574.925 188.712 580 210.5 580C232.288 580 253.777 574.925 273.264 565.178C275.484 564.047 277.353 562.332 278.67 560.217C279.987 558.102 280.701 555.667 280.737 553.176C281.158 534.331 282.877 515.626 285.929 497.097C236.161 507.309 184.839 507.309 135.071 497.097Z" fill="#F5CB5C"/>
</svg>
