<svg width="725" height="173" viewBox="0 0 725 173" fill="none" xmlns="http://www.w3.org/2000/svg">
<mask id="path-1-outside-1_9_12" maskUnits="userSpaceOnUse" x="0" y="0" width="725" height="173" fill="black">
<rect fill="white" width="725" height="173"/>
<path d="M172.562 38.375H191.062V73.875C194.938 71.75 199.25 70.0625 204 68.8125C208.792 67.5625 213.812 66.9375 219.062 66.9375C225.146 66.9375 230.604 67.8333 235.438 69.625C240.312 71.4167 244.438 74 247.812 77.375C251.188 80.7083 253.771 84.7708 255.562 89.5625C257.396 94.3542 258.312 99.75 258.312 105.75V142H239.875V106.5C239.875 103 239.312 99.8125 238.188 96.9375C237.062 94.0208 235.417 91.5208 233.25 89.4375C231.083 87.3542 228.438 85.75 225.312 84.625C222.229 83.4583 218.729 82.875 214.812 82.875C210.104 82.875 205.729 83.625 201.688 85.125C197.646 86.625 194.104 88.5208 191.062 90.8125V142H172.562V38.375Z"/>
<path d="M275.562 104.875C275.562 99.875 276.583 95.1042 278.625 90.5625C280.667 85.9792 283.604 81.9375 287.438 78.4375C291.271 74.9375 295.958 72.1458 301.5 70.0625C307.083 67.9792 313.417 66.9375 320.5 66.9375C327.542 66.9375 333.875 68 339.5 70.125C345.167 72.2083 349.958 75.0833 353.875 78.75C357.833 82.4167 360.854 86.7292 362.938 91.6875C365.062 96.6458 366.125 101.958 366.125 107.625C366.125 108.333 366.104 109.104 366.062 109.938C366.062 110.729 366.021 111.458 365.938 112.125H296.188C296.979 114.333 298.25 116.354 300 118.188C301.792 120.021 304.021 121.604 306.688 122.938C309.354 124.271 312.438 125.312 315.938 126.062C319.438 126.771 323.312 127.125 327.562 127.125C331.812 127.125 336.042 126.688 340.25 125.812C344.458 124.896 348.479 123.75 352.312 122.375L358.562 136.5C356.146 137.625 353.688 138.625 351.188 139.5C348.729 140.333 346.146 141.042 343.438 141.625C340.771 142.167 337.958 142.583 335 142.875C332.083 143.167 329 143.312 325.75 143.312C317.458 143.312 310.188 142.312 303.938 140.312C297.688 138.312 292.458 135.583 288.25 132.125C284.042 128.667 280.875 124.604 278.75 119.938C276.625 115.271 275.562 110.25 275.562 104.875ZM346.5 97.6875C345.833 95.6458 344.792 93.75 343.375 92C342 90.2083 340.271 88.6667 338.188 87.375C336.104 86.0417 333.688 85 330.938 84.25C328.188 83.5 325.167 83.125 321.875 83.125C318.375 83.125 315.188 83.5208 312.312 84.3125C309.438 85.1042 306.917 86.1667 304.75 87.5C302.583 88.8333 300.771 90.375 299.312 92.125C297.896 93.875 296.854 95.7292 296.188 97.6875H346.5Z"/>
<path d="M386.062 68.25H404.562V74.5C409.479 71.7083 414.167 69.75 418.625 68.625C423.125 67.5 427.521 66.9375 431.812 66.9375C437.438 66.9375 442.646 67.7708 447.438 69.4375C452.229 71.0625 456.375 73.5 459.875 76.75C463.375 80 466.104 84.0625 468.062 88.9375C470.062 93.7708 471.062 99.375 471.062 105.75V142H452.625V108.75C452.625 104.708 452.042 101.104 450.875 97.9375C449.75 94.7292 448.104 92.0417 445.938 89.875C443.812 87.6667 441.208 86 438.125 84.875C435.083 83.7083 431.667 83.125 427.875 83.125C425.875 83.125 423.812 83.3333 421.688 83.75C419.604 84.1667 417.542 84.7708 415.5 85.5625C413.5 86.3125 411.562 87.2708 409.688 88.4375C407.812 89.5625 406.104 90.8542 404.562 92.3125V142H386.062V68.25Z"/>
<path d="M496.75 119.375C501.75 122.375 507.25 124.583 513.25 126C519.25 127.417 525.396 128.125 531.688 128.125C535.938 128.125 539.479 127.833 542.312 127.25C545.146 126.667 547.417 125.917 549.125 125C550.833 124.083 552.042 123.042 552.75 121.875C553.458 120.708 553.812 119.521 553.812 118.312C553.812 116.562 553.042 115.062 551.5 113.812C550 112.562 547.5 111.938 544 111.938C542.375 111.938 540.625 112.042 538.75 112.25C536.875 112.458 534.896 112.688 532.812 112.938C530.771 113.146 528.625 113.354 526.375 113.562C524.167 113.771 521.917 113.875 519.625 113.875C514.625 113.875 510.354 113.333 506.812 112.25C503.312 111.167 500.458 109.688 498.25 107.812C496.042 105.938 494.438 103.729 493.438 101.188C492.438 98.6042 491.938 95.8333 491.938 92.875C491.938 89.125 492.812 85.6667 494.562 82.5C496.312 79.3333 498.812 76.6042 502.062 74.3125C505.312 71.9792 509.229 70.1667 513.812 68.875C518.438 67.5833 523.583 66.9375 529.25 66.9375C532.208 66.9375 535.292 67.125 538.5 67.5C541.75 67.8333 544.938 68.2917 548.062 68.875C551.188 69.4583 554.188 70.1458 557.062 70.9375C559.938 71.6875 562.479 72.5 564.688 73.375L558.875 87.75C554.167 86 549.458 84.625 544.75 83.625C540.083 82.5833 535.271 82.0625 530.312 82.0625C526.854 82.0625 523.917 82.3333 521.5 82.875C519.125 83.375 517.188 84.0625 515.688 84.9375C514.188 85.7708 513.083 86.75 512.375 87.875C511.708 88.9583 511.375 90.1042 511.375 91.3125C511.375 92.1875 511.542 92.9792 511.875 93.6875C512.25 94.3958 512.833 95.0208 513.625 95.5625C514.458 96.0625 515.521 96.4583 516.812 96.75C518.146 97 519.771 97.125 521.688 97.125C523.438 97.125 525.292 97.0208 527.25 96.8125C529.208 96.6042 531.25 96.3958 533.375 96.1875C535.5 95.9375 537.688 95.7083 539.938 95.5C542.229 95.2917 544.562 95.1875 546.938 95.1875C551.354 95.1875 555.208 95.7083 558.5 96.75C561.833 97.7917 564.583 99.25 566.75 101.125C568.917 103 570.542 105.208 571.625 107.75C572.708 110.292 573.25 113.062 573.25 116.062C573.25 119.938 572.354 123.542 570.562 126.875C568.771 130.208 566.104 133.104 562.562 135.562C559.021 137.979 554.604 139.875 549.312 141.25C544.062 142.625 537.979 143.312 531.062 143.312C526.812 143.312 522.708 143.042 518.75 142.5C514.792 142 511.021 141.312 507.438 140.438C503.854 139.521 500.479 138.458 497.312 137.25C494.188 136.042 491.333 134.75 488.75 133.375L496.75 119.375Z"/>
<path d="M589.938 38.375H608.438V73.875C612.312 71.75 616.625 70.0625 621.375 68.8125C626.167 67.5625 631.188 66.9375 636.438 66.9375C642.521 66.9375 647.979 67.8333 652.812 69.625C657.688 71.4167 661.812 74 665.188 77.375C668.562 80.7083 671.146 84.7708 672.938 89.5625C674.771 94.3542 675.688 99.75 675.688 105.75V142H657.25V106.5C657.25 103 656.688 99.8125 655.562 96.9375C654.438 94.0208 652.792 91.5208 650.625 89.4375C648.458 87.3542 645.812 85.75 642.688 84.625C639.604 83.4583 636.104 82.875 632.188 82.875C627.479 82.875 623.104 83.625 619.062 85.125C615.021 86.625 611.479 88.5208 608.438 90.8125V142H589.938V38.375Z"/>
<path d="M706.188 58.1875C704.354 58.1875 702.688 57.9375 701.188 57.4375C699.729 56.8958 698.479 56.1875 697.438 55.3125C696.396 54.3958 695.583 53.3542 695 52.1875C694.458 50.9792 694.188 49.7083 694.188 48.375C694.188 47 694.458 45.7292 695 44.5625C695.583 43.3542 696.396 42.3125 697.438 41.4375C698.479 40.5625 699.729 39.875 701.188 39.375C702.688 38.8333 704.354 38.5625 706.188 38.5625C708.062 38.5625 709.729 38.8333 711.188 39.375C712.688 39.875 713.958 40.5625 715 41.4375C716.042 42.3125 716.833 43.3542 717.375 44.5625C717.958 45.7292 718.25 47 718.25 48.375C718.25 49.7083 717.958 50.9792 717.375 52.1875C716.833 53.3542 716.042 54.3958 715 55.3125C713.958 56.1875 712.688 56.8958 711.188 57.4375C709.729 57.9375 708.062 58.1875 706.188 58.1875ZM696.938 68.25H715.438V142H696.938V68.25Z"/>
<path d="M92.346 119.828C92.0116 120.637 91.6866 121.448 91.371 122.264C89.4303 122.912 87.472 123.488 85.5001 123.991L85.1295 76.8609L84.9059 76.8626L84.9057 76.8385L75.9674 76.9087L76.1025 94.1036C76.1159 95.7989 75.8553 97.345 75.3209 98.7418C74.7866 100.159 73.9982 101.376 72.9558 102.393C71.9133 103.411 70.6368 104.198 69.1261 104.755C67.6357 105.331 65.9412 105.627 64.0424 105.642C64.0022 105.642 63.962 105.643 63.9219 105.643C62.402 105.575 61.0198 105.311 59.7753 104.852C58.256 104.319 56.9672 103.552 55.9089 102.551C54.8506 101.55 54.0432 100.346 53.4867 98.9373C52.9304 97.549 52.6455 96.0072 52.6322 94.312L52.497 77.117L52.3037 77.1185L52.3035 77.0944L43.3348 77.1648L43.7034 124.043C41.6626 123.527 39.6364 122.934 37.629 122.264C37.3137 121.448 36.9887 120.636 36.654 119.828C35.7278 117.588 35.2598 116.458 34.4505 115.425C33.651 114.383 32.247 113.331 29.439 111.237C19.607 103.882 12.3414 93.6219 8.67187 81.9109C5.00237 70.1998 5.11518 57.632 8.99433 45.9886C12.8735 34.3452 20.3221 24.2171 30.2846 17.0397C40.247 9.8624 52.2177 6 64.5 6C76.7823 6 88.753 9.8624 98.7154 17.0397C108.678 24.2171 116.127 34.3452 120.006 45.9886C123.885 57.632 123.998 70.1998 120.328 81.9109C116.659 93.6219 109.393 103.882 99.561 111.237C96.753 113.331 95.349 114.383 94.5495 115.425C93.7562 116.438 93.3003 117.534 92.401 119.696L92.346 119.828Z"/>
<path d="M52.6864 125.805L52.571 111.124C53.3112 111.515 54.0955 111.859 54.9239 112.156C57.2738 113.005 59.9234 113.419 62.8726 113.395C63.5041 113.391 64.1287 113.367 64.7463 113.325C65.2149 113.342 65.6872 113.349 66.1635 113.346C69.1126 113.322 71.7554 112.868 74.0917 111.981C74.9153 111.672 75.694 111.315 76.428 110.913L76.5449 125.772C68.6334 126.906 60.6002 126.917 52.6864 125.805Z"/>
<path d="M43.5375 143.987C44.3858 149.121 44.8635 154.323 44.9805 159.554C44.9903 160.246 45.189 160.921 45.5549 161.508C45.9209 162.096 46.4404 162.572 47.0573 162.886C52.473 165.591 58.4449 167 64.5 167C70.5551 167 76.527 165.591 81.9427 162.886C82.5596 162.572 83.0791 162.096 83.4451 161.508C83.811 160.921 84.0097 160.246 84.0195 159.554C84.1365 154.323 84.6142 149.131 85.4625 143.987C71.6315 146.822 57.3685 146.822 43.5375 143.987Z"/>
</mask>
<path d="M172.562 38.375H191.062V73.875C194.938 71.75 199.25 70.0625 204 68.8125C208.792 67.5625 213.812 66.9375 219.062 66.9375C225.146 66.9375 230.604 67.8333 235.438 69.625C240.312 71.4167 244.438 74 247.812 77.375C251.188 80.7083 253.771 84.7708 255.562 89.5625C257.396 94.3542 258.312 99.75 258.312 105.75V142H239.875V106.5C239.875 103 239.312 99.8125 238.188 96.9375C237.062 94.0208 235.417 91.5208 233.25 89.4375C231.083 87.3542 228.438 85.75 225.312 84.625C222.229 83.4583 218.729 82.875 214.812 82.875C210.104 82.875 205.729 83.625 201.688 85.125C197.646 86.625 194.104 88.5208 191.062 90.8125V142H172.562V38.375Z" fill="#E8EDDF"/>
<path d="M275.562 104.875C275.562 99.875 276.583 95.1042 278.625 90.5625C280.667 85.9792 283.604 81.9375 287.438 78.4375C291.271 74.9375 295.958 72.1458 301.5 70.0625C307.083 67.9792 313.417 66.9375 320.5 66.9375C327.542 66.9375 333.875 68 339.5 70.125C345.167 72.2083 349.958 75.0833 353.875 78.75C357.833 82.4167 360.854 86.7292 362.938 91.6875C365.062 96.6458 366.125 101.958 366.125 107.625C366.125 108.333 366.104 109.104 366.062 109.938C366.062 110.729 366.021 111.458 365.938 112.125H296.188C296.979 114.333 298.25 116.354 300 118.188C301.792 120.021 304.021 121.604 306.688 122.938C309.354 124.271 312.438 125.312 315.938 126.062C319.438 126.771 323.312 127.125 327.562 127.125C331.812 127.125 336.042 126.688 340.25 125.812C344.458 124.896 348.479 123.75 352.312 122.375L358.562 136.5C356.146 137.625 353.688 138.625 351.188 139.5C348.729 140.333 346.146 141.042 343.438 141.625C340.771 142.167 337.958 142.583 335 142.875C332.083 143.167 329 143.312 325.75 143.312C317.458 143.312 310.188 142.312 303.938 140.312C297.688 138.312 292.458 135.583 288.25 132.125C284.042 128.667 280.875 124.604 278.75 119.938C276.625 115.271 275.562 110.25 275.562 104.875ZM346.5 97.6875C345.833 95.6458 344.792 93.75 343.375 92C342 90.2083 340.271 88.6667 338.188 87.375C336.104 86.0417 333.688 85 330.938 84.25C328.188 83.5 325.167 83.125 321.875 83.125C318.375 83.125 315.188 83.5208 312.312 84.3125C309.438 85.1042 306.917 86.1667 304.75 87.5C302.583 88.8333 300.771 90.375 299.312 92.125C297.896 93.875 296.854 95.7292 296.188 97.6875H346.5Z" fill="#E8EDDF"/>
<path d="M386.062 68.25H404.562V74.5C409.479 71.7083 414.167 69.75 418.625 68.625C423.125 67.5 427.521 66.9375 431.812 66.9375C437.438 66.9375 442.646 67.7708 447.438 69.4375C452.229 71.0625 456.375 73.5 459.875 76.75C463.375 80 466.104 84.0625 468.062 88.9375C470.062 93.7708 471.062 99.375 471.062 105.75V142H452.625V108.75C452.625 104.708 452.042 101.104 450.875 97.9375C449.75 94.7292 448.104 92.0417 445.938 89.875C443.812 87.6667 441.208 86 438.125 84.875C435.083 83.7083 431.667 83.125 427.875 83.125C425.875 83.125 423.812 83.3333 421.688 83.75C419.604 84.1667 417.542 84.7708 415.5 85.5625C413.5 86.3125 411.562 87.2708 409.688 88.4375C407.812 89.5625 406.104 90.8542 404.562 92.3125V142H386.062V68.25Z" fill="#E8EDDF"/>
<path d="M496.75 119.375C501.75 122.375 507.25 124.583 513.25 126C519.25 127.417 525.396 128.125 531.688 128.125C535.938 128.125 539.479 127.833 542.312 127.25C545.146 126.667 547.417 125.917 549.125 125C550.833 124.083 552.042 123.042 552.75 121.875C553.458 120.708 553.812 119.521 553.812 118.312C553.812 116.562 553.042 115.062 551.5 113.812C550 112.562 547.5 111.938 544 111.938C542.375 111.938 540.625 112.042 538.75 112.25C536.875 112.458 534.896 112.688 532.812 112.938C530.771 113.146 528.625 113.354 526.375 113.562C524.167 113.771 521.917 113.875 519.625 113.875C514.625 113.875 510.354 113.333 506.812 112.25C503.312 111.167 500.458 109.688 498.25 107.812C496.042 105.938 494.438 103.729 493.438 101.188C492.438 98.6042 491.938 95.8333 491.938 92.875C491.938 89.125 492.812 85.6667 494.562 82.5C496.312 79.3333 498.812 76.6042 502.062 74.3125C505.312 71.9792 509.229 70.1667 513.812 68.875C518.438 67.5833 523.583 66.9375 529.25 66.9375C532.208 66.9375 535.292 67.125 538.5 67.5C541.75 67.8333 544.938 68.2917 548.062 68.875C551.188 69.4583 554.188 70.1458 557.062 70.9375C559.938 71.6875 562.479 72.5 564.688 73.375L558.875 87.75C554.167 86 549.458 84.625 544.75 83.625C540.083 82.5833 535.271 82.0625 530.312 82.0625C526.854 82.0625 523.917 82.3333 521.5 82.875C519.125 83.375 517.188 84.0625 515.688 84.9375C514.188 85.7708 513.083 86.75 512.375 87.875C511.708 88.9583 511.375 90.1042 511.375 91.3125C511.375 92.1875 511.542 92.9792 511.875 93.6875C512.25 94.3958 512.833 95.0208 513.625 95.5625C514.458 96.0625 515.521 96.4583 516.812 96.75C518.146 97 519.771 97.125 521.688 97.125C523.438 97.125 525.292 97.0208 527.25 96.8125C529.208 96.6042 531.25 96.3958 533.375 96.1875C535.5 95.9375 537.688 95.7083 539.938 95.5C542.229 95.2917 544.562 95.1875 546.938 95.1875C551.354 95.1875 555.208 95.7083 558.5 96.75C561.833 97.7917 564.583 99.25 566.75 101.125C568.917 103 570.542 105.208 571.625 107.75C572.708 110.292 573.25 113.062 573.25 116.062C573.25 119.938 572.354 123.542 570.562 126.875C568.771 130.208 566.104 133.104 562.562 135.562C559.021 137.979 554.604 139.875 549.312 141.25C544.062 142.625 537.979 143.312 531.062 143.312C526.812 143.312 522.708 143.042 518.75 142.5C514.792 142 511.021 141.312 507.438 140.438C503.854 139.521 500.479 138.458 497.312 137.25C494.188 136.042 491.333 134.75 488.75 133.375L496.75 119.375Z" fill="#E8EDDF"/>
<path d="M589.938 38.375H608.438V73.875C612.312 71.75 616.625 70.0625 621.375 68.8125C626.167 67.5625 631.188 66.9375 636.438 66.9375C642.521 66.9375 647.979 67.8333 652.812 69.625C657.688 71.4167 661.812 74 665.188 77.375C668.562 80.7083 671.146 84.7708 672.938 89.5625C674.771 94.3542 675.688 99.75 675.688 105.75V142H657.25V106.5C657.25 103 656.688 99.8125 655.562 96.9375C654.438 94.0208 652.792 91.5208 650.625 89.4375C648.458 87.3542 645.812 85.75 642.688 84.625C639.604 83.4583 636.104 82.875 632.188 82.875C627.479 82.875 623.104 83.625 619.062 85.125C615.021 86.625 611.479 88.5208 608.438 90.8125V142H589.938V38.375Z" fill="#E8EDDF"/>
<path d="M706.188 58.1875C704.354 58.1875 702.688 57.9375 701.188 57.4375C699.729 56.8958 698.479 56.1875 697.438 55.3125C696.396 54.3958 695.583 53.3542 695 52.1875C694.458 50.9792 694.188 49.7083 694.188 48.375C694.188 47 694.458 45.7292 695 44.5625C695.583 43.3542 696.396 42.3125 697.438 41.4375C698.479 40.5625 699.729 39.875 701.188 39.375C702.688 38.8333 704.354 38.5625 706.188 38.5625C708.062 38.5625 709.729 38.8333 711.188 39.375C712.688 39.875 713.958 40.5625 715 41.4375C716.042 42.3125 716.833 43.3542 717.375 44.5625C717.958 45.7292 718.25 47 718.25 48.375C718.25 49.7083 717.958 50.9792 717.375 52.1875C716.833 53.3542 716.042 54.3958 715 55.3125C713.958 56.1875 712.688 56.8958 711.188 57.4375C709.729 57.9375 708.062 58.1875 706.188 58.1875ZM696.938 68.25H715.438V142H696.938V68.25Z" fill="#E8EDDF"/>
<path d="M92.346 119.828C92.0116 120.637 91.6866 121.448 91.371 122.264C89.4303 122.912 87.472 123.488 85.5001 123.991L85.1295 76.8609L84.9059 76.8626L84.9057 76.8385L75.9674 76.9087L76.1025 94.1036C76.1159 95.7989 75.8553 97.345 75.3209 98.7418C74.7866 100.159 73.9982 101.376 72.9558 102.393C71.9133 103.411 70.6368 104.198 69.1261 104.755C67.6357 105.331 65.9412 105.627 64.0424 105.642C64.0022 105.642 63.962 105.643 63.9219 105.643C62.402 105.575 61.0198 105.311 59.7753 104.852C58.256 104.319 56.9672 103.552 55.9089 102.551C54.8506 101.55 54.0432 100.346 53.4867 98.9373C52.9304 97.549 52.6455 96.0072 52.6322 94.312L52.497 77.117L52.3037 77.1185L52.3035 77.0944L43.3348 77.1648L43.7034 124.043C41.6626 123.527 39.6364 122.934 37.629 122.264C37.3137 121.448 36.9887 120.636 36.654 119.828C35.7278 117.588 35.2598 116.458 34.4505 115.425C33.651 114.383 32.247 113.331 29.439 111.237C19.607 103.882 12.3414 93.6219 8.67187 81.9109C5.00237 70.1998 5.11518 57.632 8.99433 45.9886C12.8735 34.3452 20.3221 24.2171 30.2846 17.0397C40.247 9.8624 52.2177 6 64.5 6C76.7823 6 88.753 9.8624 98.7154 17.0397C108.678 24.2171 116.127 34.3452 120.006 45.9886C123.885 57.632 123.998 70.1998 120.328 81.9109C116.659 93.6219 109.393 103.882 99.561 111.237C96.753 113.331 95.349 114.383 94.5495 115.425C93.7562 116.438 93.3003 117.534 92.401 119.696L92.346 119.828Z" fill="#F5CB5C"/>
<path d="M52.6864 125.805L52.571 111.124C53.3112 111.515 54.0955 111.859 54.9239 112.156C57.2738 113.005 59.9234 113.419 62.8726 113.395C63.5041 113.391 64.1287 113.367 64.7463 113.325C65.2149 113.342 65.6872 113.349 66.1635 113.346C69.1126 113.322 71.7554 112.868 74.0917 111.981C74.9153 111.672 75.694 111.315 76.428 110.913L76.5449 125.772C68.6334 126.906 60.6002 126.917 52.6864 125.805Z" fill="#F5CB5C"/>
<path d="M43.5375 143.987C44.3858 149.121 44.8635 154.323 44.9805 159.554C44.9903 160.246 45.189 160.921 45.5549 161.508C45.9209 162.096 46.4404 162.572 47.0573 162.886C52.473 165.591 58.4449 167 64.5 167C70.5551 167 76.527 165.591 81.9427 162.886C82.5596 162.572 83.0791 162.096 83.4451 161.508C83.811 160.921 84.0097 160.246 84.0195 159.554C84.1365 154.323 84.6142 149.131 85.4625 143.987C71.6315 146.822 57.3685 146.822 43.5375 143.987Z" fill="#F5CB5C"/>
<path d="M172.562 38.375H191.062V73.875C194.938 71.75 199.25 70.0625 204 68.8125C208.792 67.5625 213.812 66.9375 219.062 66.9375C225.146 66.9375 230.604 67.8333 235.438 69.625C240.312 71.4167 244.438 74 247.812 77.375C251.188 80.7083 253.771 84.7708 255.562 89.5625C257.396 94.3542 258.312 99.75 258.312 105.75V142H239.875V106.5C239.875 103 239.312 99.8125 238.188 96.9375C237.062 94.0208 235.417 91.5208 233.25 89.4375C231.083 87.3542 228.438 85.75 225.312 84.625C222.229 83.4583 218.729 82.875 214.812 82.875C210.104 82.875 205.729 83.625 201.688 85.125C197.646 86.625 194.104 88.5208 191.062 90.8125V142H172.562V38.375Z" stroke="#454545" stroke-opacity="0.58" stroke-width="12" mask="url(#path-1-outside-1_9_12)"/>
<path d="M275.562 104.875C275.562 99.875 276.583 95.1042 278.625 90.5625C280.667 85.9792 283.604 81.9375 287.438 78.4375C291.271 74.9375 295.958 72.1458 301.5 70.0625C307.083 67.9792 313.417 66.9375 320.5 66.9375C327.542 66.9375 333.875 68 339.5 70.125C345.167 72.2083 349.958 75.0833 353.875 78.75C357.833 82.4167 360.854 86.7292 362.938 91.6875C365.062 96.6458 366.125 101.958 366.125 107.625C366.125 108.333 366.104 109.104 366.062 109.938C366.062 110.729 366.021 111.458 365.938 112.125H296.188C296.979 114.333 298.25 116.354 300 118.188C301.792 120.021 304.021 121.604 306.688 122.938C309.354 124.271 312.438 125.312 315.938 126.062C319.438 126.771 323.312 127.125 327.562 127.125C331.812 127.125 336.042 126.688 340.25 125.812C344.458 124.896 348.479 123.75 352.312 122.375L358.562 136.5C356.146 137.625 353.688 138.625 351.188 139.5C348.729 140.333 346.146 141.042 343.438 141.625C340.771 142.167 337.958 142.583 335 142.875C332.083 143.167 329 143.312 325.75 143.312C317.458 143.312 310.188 142.312 303.938 140.312C297.688 138.312 292.458 135.583 288.25 132.125C284.042 128.667 280.875 124.604 278.75 119.938C276.625 115.271 275.562 110.25 275.562 104.875ZM346.5 97.6875C345.833 95.6458 344.792 93.75 343.375 92C342 90.2083 340.271 88.6667 338.188 87.375C336.104 86.0417 333.688 85 330.938 84.25C328.188 83.5 325.167 83.125 321.875 83.125C318.375 83.125 315.188 83.5208 312.312 84.3125C309.438 85.1042 306.917 86.1667 304.75 87.5C302.583 88.8333 300.771 90.375 299.312 92.125C297.896 93.875 296.854 95.7292 296.188 97.6875H346.5Z" stroke="#454545" stroke-opacity="0.58" stroke-width="12" mask="url(#path-1-outside-1_9_12)"/>
<path d="M386.062 68.25H404.562V74.5C409.479 71.7083 414.167 69.75 418.625 68.625C423.125 67.5 427.521 66.9375 431.812 66.9375C437.438 66.9375 442.646 67.7708 447.438 69.4375C452.229 71.0625 456.375 73.5 459.875 76.75C463.375 80 466.104 84.0625 468.062 88.9375C470.062 93.7708 471.062 99.375 471.062 105.75V142H452.625V108.75C452.625 104.708 452.042 101.104 450.875 97.9375C449.75 94.7292 448.104 92.0417 445.938 89.875C443.812 87.6667 441.208 86 438.125 84.875C435.083 83.7083 431.667 83.125 427.875 83.125C425.875 83.125 423.812 83.3333 421.688 83.75C419.604 84.1667 417.542 84.7708 415.5 85.5625C413.5 86.3125 411.562 87.2708 409.688 88.4375C407.812 89.5625 406.104 90.8542 404.562 92.3125V142H386.062V68.25Z" stroke="#454545" stroke-opacity="0.58" stroke-width="12" mask="url(#path-1-outside-1_9_12)"/>
<path d="M496.75 119.375C501.75 122.375 507.25 124.583 513.25 126C519.25 127.417 525.396 128.125 531.688 128.125C535.938 128.125 539.479 127.833 542.312 127.25C545.146 126.667 547.417 125.917 549.125 125C550.833 124.083 552.042 123.042 552.75 121.875C553.458 120.708 553.812 119.521 553.812 118.312C553.812 116.562 553.042 115.062 551.5 113.812C550 112.562 547.5 111.938 544 111.938C542.375 111.938 540.625 112.042 538.75 112.25C536.875 112.458 534.896 112.688 532.812 112.938C530.771 113.146 528.625 113.354 526.375 113.562C524.167 113.771 521.917 113.875 519.625 113.875C514.625 113.875 510.354 113.333 506.812 112.25C503.312 111.167 500.458 109.688 498.25 107.812C496.042 105.938 494.438 103.729 493.438 101.188C492.438 98.6042 491.938 95.8333 491.938 92.875C491.938 89.125 492.812 85.6667 494.562 82.5C496.312 79.3333 498.812 76.6042 502.062 74.3125C505.312 71.9792 509.229 70.1667 513.812 68.875C518.438 67.5833 523.583 66.9375 529.25 66.9375C532.208 66.9375 535.292 67.125 538.5 67.5C541.75 67.8333 544.938 68.2917 548.062 68.875C551.188 69.4583 554.188 70.1458 557.062 70.9375C559.938 71.6875 562.479 72.5 564.688 73.375L558.875 87.75C554.167 86 549.458 84.625 544.75 83.625C540.083 82.5833 535.271 82.0625 530.312 82.0625C526.854 82.0625 523.917 82.3333 521.5 82.875C519.125 83.375 517.188 84.0625 515.688 84.9375C514.188 85.7708 513.083 86.75 512.375 87.875C511.708 88.9583 511.375 90.1042 511.375 91.3125C511.375 92.1875 511.542 92.9792 511.875 93.6875C512.25 94.3958 512.833 95.0208 513.625 95.5625C514.458 96.0625 515.521 96.4583 516.812 96.75C518.146 97 519.771 97.125 521.688 97.125C523.438 97.125 525.292 97.0208 527.25 96.8125C529.208 96.6042 531.25 96.3958 533.375 96.1875C535.5 95.9375 537.688 95.7083 539.938 95.5C542.229 95.2917 544.562 95.1875 546.938 95.1875C551.354 95.1875 555.208 95.7083 558.5 96.75C561.833 97.7917 564.583 99.25 566.75 101.125C568.917 103 570.542 105.208 571.625 107.75C572.708 110.292 573.25 113.062 573.25 116.062C573.25 119.938 572.354 123.542 570.562 126.875C568.771 130.208 566.104 133.104 562.562 135.562C559.021 137.979 554.604 139.875 549.312 141.25C544.062 142.625 537.979 143.312 531.062 143.312C526.812 143.312 522.708 143.042 518.75 142.5C514.792 142 511.021 141.312 507.438 140.438C503.854 139.521 500.479 138.458 497.312 137.25C494.188 136.042 491.333 134.75 488.75 133.375L496.75 119.375Z" stroke="#454545" stroke-opacity="0.58" stroke-width="12" mask="url(#path-1-outside-1_9_12)"/>
<path d="M589.938 38.375H608.438V73.875C612.312 71.75 616.625 70.0625 621.375 68.8125C626.167 67.5625 631.188 66.9375 636.438 66.9375C642.521 66.9375 647.979 67.8333 652.812 69.625C657.688 71.4167 661.812 74 665.188 77.375C668.562 80.7083 671.146 84.7708 672.938 89.5625C674.771 94.3542 675.688 99.75 675.688 105.75V142H657.25V106.5C657.25 103 656.688 99.8125 655.562 96.9375C654.438 94.0208 652.792 91.5208 650.625 89.4375C648.458 87.3542 645.812 85.75 642.688 84.625C639.604 83.4583 636.104 82.875 632.188 82.875C627.479 82.875 623.104 83.625 619.062 85.125C615.021 86.625 611.479 88.5208 608.438 90.8125V142H589.938V38.375Z" stroke="#454545" stroke-opacity="0.58" stroke-width="12" mask="url(#path-1-outside-1_9_12)"/>
<path d="M706.188 58.1875C704.354 58.1875 702.688 57.9375 701.188 57.4375C699.729 56.8958 698.479 56.1875 697.438 55.3125C696.396 54.3958 695.583 53.3542 695 52.1875C694.458 50.9792 694.188 49.7083 694.188 48.375C694.188 47 694.458 45.7292 695 44.5625C695.583 43.3542 696.396 42.3125 697.438 41.4375C698.479 40.5625 699.729 39.875 701.188 39.375C702.688 38.8333 704.354 38.5625 706.188 38.5625C708.062 38.5625 709.729 38.8333 711.188 39.375C712.688 39.875 713.958 40.5625 715 41.4375C716.042 42.3125 716.833 43.3542 717.375 44.5625C717.958 45.7292 718.25 47 718.25 48.375C718.25 49.7083 717.958 50.9792 717.375 52.1875C716.833 53.3542 716.042 54.3958 715 55.3125C713.958 56.1875 712.688 56.8958 711.188 57.4375C709.729 57.9375 708.062 58.1875 706.188 58.1875ZM696.938 68.25H715.438V142H696.938V68.25Z" stroke="#454545" stroke-opacity="0.58" stroke-width="12" mask="url(#path-1-outside-1_9_12)"/>
<path d="M92.346 119.828C92.0116 120.637 91.6866 121.448 91.371 122.264C89.4303 122.912 87.472 123.488 85.5001 123.991L85.1295 76.8609L84.9059 76.8626L84.9057 76.8385L75.9674 76.9087L76.1025 94.1036C76.1159 95.7989 75.8553 97.345 75.3209 98.7418C74.7866 100.159 73.9982 101.376 72.9558 102.393C71.9133 103.411 70.6368 104.198 69.1261 104.755C67.6357 105.331 65.9412 105.627 64.0424 105.642C64.0022 105.642 63.962 105.643 63.9219 105.643C62.402 105.575 61.0198 105.311 59.7753 104.852C58.256 104.319 56.9672 103.552 55.9089 102.551C54.8506 101.55 54.0432 100.346 53.4867 98.9373C52.9304 97.549 52.6455 96.0072 52.6322 94.312L52.497 77.117L52.3037 77.1185L52.3035 77.0944L43.3348 77.1648L43.7034 124.043C41.6626 123.527 39.6364 122.934 37.629 122.264C37.3137 121.448 36.9887 120.636 36.654 119.828C35.7278 117.588 35.2598 116.458 34.4505 115.425C33.651 114.383 32.247 113.331 29.439 111.237C19.607 103.882 12.3414 93.6219 8.67187 81.9109C5.00237 70.1998 5.11518 57.632 8.99433 45.9886C12.8735 34.3452 20.3221 24.2171 30.2846 17.0397C40.247 9.8624 52.2177 6 64.5 6C76.7823 6 88.753 9.8624 98.7154 17.0397C108.678 24.2171 116.127 34.3452 120.006 45.9886C123.885 57.632 123.998 70.1998 120.328 81.9109C116.659 93.6219 109.393 103.882 99.561 111.237C96.753 113.331 95.349 114.383 94.5495 115.425C93.7562 116.438 93.3003 117.534 92.401 119.696L92.346 119.828Z" stroke="#454545" stroke-opacity="0.58" stroke-width="12" mask="url(#path-1-outside-1_9_12)"/>
<path d="M52.6864 125.805L52.571 111.124C53.3112 111.515 54.0955 111.859 54.9239 112.156C57.2738 113.005 59.9234 113.419 62.8726 113.395C63.5041 113.391 64.1287 113.367 64.7463 113.325C65.2149 113.342 65.6872 113.349 66.1635 113.346C69.1126 113.322 71.7554 112.868 74.0917 111.981C74.9153 111.672 75.694 111.315 76.428 110.913L76.5449 125.772C68.6334 126.906 60.6002 126.917 52.6864 125.805Z" stroke="#454545" stroke-opacity="0.58" stroke-width="12" mask="url(#path-1-outside-1_9_12)"/>
<path d="M43.5375 143.987C44.3858 149.121 44.8635 154.323 44.9805 159.554C44.9903 160.246 45.189 160.921 45.5549 161.508C45.9209 162.096 46.4404 162.572 47.0573 162.886C52.473 165.591 58.4449 167 64.5 167C70.5551 167 76.527 165.591 81.9427 162.886C82.5596 162.572 83.0791 162.096 83.4451 161.508C83.811 160.921 84.0097 160.246 84.0195 159.554C84.1365 154.323 84.6142 149.131 85.4625 143.987C71.6315 146.822 57.3685 146.822 43.5375 143.987Z" stroke="#454545" stroke-opacity="0.58" stroke-width="12" mask="url(#path-1-outside-1_9_12)"/>
</svg>
