<svg width="713" height="161" viewBox="0 0 713 161" fill="none" xmlns="http://www.w3.org/2000/svg">
<path d="M166.562 32.375H185.062V67.875C188.938 65.75 193.25 64.0625 198 62.8125C202.792 61.5625 207.812 60.9375 213.062 60.9375C219.146 60.9375 224.604 61.8333 229.438 63.625C234.312 65.4167 238.438 68 241.812 71.375C245.188 74.7083 247.771 78.7708 249.562 83.5625C251.396 88.3542 252.312 93.75 252.312 99.75V136H233.875V100.5C233.875 97 233.312 93.8125 232.188 90.9375C231.062 88.0208 229.417 85.5208 227.25 83.4375C225.083 81.3542 222.438 79.75 219.312 78.625C216.229 77.4583 212.729 76.875 208.812 76.875C204.104 76.875 199.729 77.625 195.688 79.125C191.646 80.625 188.104 82.5208 185.062 84.8125V136H166.562V32.375Z" fill="black"/>
<path d="M269.562 98.875C269.562 93.875 270.583 89.1042 272.625 84.5625C274.667 79.9792 277.604 75.9375 281.438 72.4375C285.271 68.9375 289.958 66.1458 295.5 64.0625C301.083 61.9792 307.417 60.9375 314.5 60.9375C321.542 60.9375 327.875 62 333.5 64.125C339.167 66.2083 343.958 69.0833 347.875 72.75C351.833 76.4167 354.854 80.7292 356.938 85.6875C359.062 90.6458 360.125 95.9583 360.125 101.625C360.125 102.333 360.104 103.104 360.062 103.938C360.062 104.729 360.021 105.458 359.938 106.125H290.188C290.979 108.333 292.25 110.354 294 112.188C295.792 114.021 298.021 115.604 300.688 116.938C303.354 118.271 306.438 119.312 309.938 120.062C313.438 120.771 317.312 121.125 321.562 121.125C325.812 121.125 330.042 120.688 334.25 119.812C338.458 118.896 342.479 117.75 346.312 116.375L352.562 130.5C350.146 131.625 347.688 132.625 345.188 133.5C342.729 134.333 340.146 135.042 337.438 135.625C334.771 136.167 331.958 136.583 329 136.875C326.083 137.167 323 137.312 319.75 137.312C311.458 137.312 304.188 136.312 297.938 134.312C291.688 132.312 286.458 129.583 282.25 126.125C278.042 122.667 274.875 118.604 272.75 113.938C270.625 109.271 269.562 104.25 269.562 98.875ZM340.5 91.6875C339.833 89.6458 338.792 87.75 337.375 86C336 84.2083 334.271 82.6667 332.188 81.375C330.104 80.0417 327.688 79 324.938 78.25C322.188 77.5 319.167 77.125 315.875 77.125C312.375 77.125 309.188 77.5208 306.312 78.3125C303.438 79.1042 300.917 80.1667 298.75 81.5C296.583 82.8333 294.771 84.375 293.312 86.125C291.896 87.875 290.854 89.7292 290.188 91.6875H340.5Z" fill="black"/>
<path d="M380.062 62.25H398.562V68.5C403.479 65.7083 408.167 63.75 412.625 62.625C417.125 61.5 421.521 60.9375 425.812 60.9375C431.438 60.9375 436.646 61.7708 441.438 63.4375C446.229 65.0625 450.375 67.5 453.875 70.75C457.375 74 460.104 78.0625 462.062 82.9375C464.062 87.7708 465.062 93.375 465.062 99.75V136H446.625V102.75C446.625 98.7083 446.042 95.1042 444.875 91.9375C443.75 88.7292 442.104 86.0417 439.938 83.875C437.812 81.6667 435.208 80 432.125 78.875C429.083 77.7083 425.667 77.125 421.875 77.125C419.875 77.125 417.812 77.3333 415.688 77.75C413.604 78.1667 411.542 78.7708 409.5 79.5625C407.5 80.3125 405.562 81.2708 403.688 82.4375C401.812 83.5625 400.104 84.8542 398.562 86.3125V136H380.062V62.25Z" fill="black"/>
<path d="M490.75 113.375C495.75 116.375 501.25 118.583 507.25 120C513.25 121.417 519.396 122.125 525.688 122.125C529.938 122.125 533.479 121.833 536.312 121.25C539.146 120.667 541.417 119.917 543.125 119C544.833 118.083 546.042 117.042 546.75 115.875C547.458 114.708 547.812 113.521 547.812 112.312C547.812 110.562 547.042 109.062 545.5 107.812C544 106.562 541.5 105.938 538 105.938C536.375 105.938 534.625 106.042 532.75 106.25C530.875 106.458 528.896 106.688 526.812 106.938C524.771 107.146 522.625 107.354 520.375 107.562C518.167 107.771 515.917 107.875 513.625 107.875C508.625 107.875 504.354 107.333 500.812 106.25C497.312 105.167 494.458 103.688 492.25 101.812C490.042 99.9375 488.438 97.7292 487.438 95.1875C486.438 92.6042 485.938 89.8333 485.938 86.875C485.938 83.125 486.812 79.6667 488.562 76.5C490.312 73.3333 492.812 70.6042 496.062 68.3125C499.312 65.9792 503.229 64.1667 507.812 62.875C512.438 61.5833 517.583 60.9375 523.25 60.9375C526.208 60.9375 529.292 61.125 532.5 61.5C535.75 61.8333 538.938 62.2917 542.062 62.875C545.188 63.4583 548.188 64.1458 551.062 64.9375C553.938 65.6875 556.479 66.5 558.688 67.375L552.875 81.75C548.167 80 543.458 78.625 538.75 77.625C534.083 76.5833 529.271 76.0625 524.312 76.0625C520.854 76.0625 517.917 76.3333 515.5 76.875C513.125 77.375 511.188 78.0625 509.688 78.9375C508.188 79.7708 507.083 80.75 506.375 81.875C505.708 82.9583 505.375 84.1042 505.375 85.3125C505.375 86.1875 505.542 86.9792 505.875 87.6875C506.25 88.3958 506.833 89.0208 507.625 89.5625C508.458 90.0625 509.521 90.4583 510.812 90.75C512.146 91 513.771 91.125 515.688 91.125C517.438 91.125 519.292 91.0208 521.25 90.8125C523.208 90.6042 525.25 90.3958 527.375 90.1875C529.5 89.9375 531.688 89.7083 533.938 89.5C536.229 89.2917 538.562 89.1875 540.938 89.1875C545.354 89.1875 549.208 89.7083 552.5 90.75C555.833 91.7917 558.583 93.25 560.75 95.125C562.917 97 564.542 99.2083 565.625 101.75C566.708 104.292 567.25 107.062 567.25 110.062C567.25 113.938 566.354 117.542 564.562 120.875C562.771 124.208 560.104 127.104 556.562 129.562C553.021 131.979 548.604 133.875 543.312 135.25C538.062 136.625 531.979 137.312 525.062 137.312C520.812 137.312 516.708 137.042 512.75 136.5C508.792 136 505.021 135.312 501.438 134.438C497.854 133.521 494.479 132.458 491.312 131.25C488.188 130.042 485.333 128.75 482.75 127.375L490.75 113.375Z" fill="black"/>
<path d="M583.938 32.375H602.438V67.875C606.312 65.75 610.625 64.0625 615.375 62.8125C620.167 61.5625 625.188 60.9375 630.438 60.9375C636.521 60.9375 641.979 61.8333 646.812 63.625C651.688 65.4167 655.812 68 659.188 71.375C662.562 74.7083 665.146 78.7708 666.938 83.5625C668.771 88.3542 669.688 93.75 669.688 99.75V136H651.25V100.5C651.25 97 650.688 93.8125 649.562 90.9375C648.438 88.0208 646.792 85.5208 644.625 83.4375C642.458 81.3542 639.812 79.75 636.688 78.625C633.604 77.4583 630.104 76.875 626.188 76.875C621.479 76.875 617.104 77.625 613.062 79.125C609.021 80.625 605.479 82.5208 602.438 84.8125V136H583.938V32.375Z" fill="black"/>
<path d="M700.188 52.1875C698.354 52.1875 696.688 51.9375 695.188 51.4375C693.729 50.8958 692.479 50.1875 691.438 49.3125C690.396 48.3958 689.583 47.3542 689 46.1875C688.458 44.9792 688.188 43.7083 688.188 42.375C688.188 41 688.458 39.7292 689 38.5625C689.583 37.3542 690.396 36.3125 691.438 35.4375C692.479 34.5625 693.729 33.875 695.188 33.375C696.688 32.8333 698.354 32.5625 700.188 32.5625C702.062 32.5625 703.729 32.8333 705.188 33.375C706.688 33.875 707.958 34.5625 709 35.4375C710.042 36.3125 710.833 37.3542 711.375 38.5625C711.958 39.7292 712.25 41 712.25 42.375C712.25 43.7083 711.958 44.9792 711.375 46.1875C710.833 47.3542 710.042 48.3958 709 49.3125C707.958 50.1875 706.688 50.8958 705.188 51.4375C703.729 51.9375 702.062 52.1875 700.188 52.1875ZM690.938 62.25H709.438V136H690.938V62.25Z" fill="black"/>
<path d="M86.346 113.828C86.0116 114.637 85.6866 115.448 85.371 116.264C83.4303 116.912 81.472 117.488 79.5001 117.991L79.1295 70.8609L78.9059 70.8626L78.9057 70.8385L69.9674 70.9087L70.1025 88.1036C70.1159 89.7989 69.8553 91.345 69.3209 92.7418C68.7866 94.1588 67.9982 95.376 66.9558 96.3933C65.9133 97.4107 64.6368 98.1977 63.1261 98.7545C61.6357 99.3313 59.9412 99.6272 58.0424 99.6421C58.0022 99.6424 57.962 99.6426 57.9219 99.6427C56.402 99.575 55.0198 99.3114 53.7753 98.852C52.256 98.319 50.9672 97.5521 49.9089 96.5512C48.8506 95.5504 48.0432 94.3457 47.4867 92.9373C46.9304 91.549 46.6455 90.0072 46.6322 88.312L46.497 71.117L46.3037 71.1185L46.3035 71.0944L37.3348 71.1648L37.7034 118.043C35.6626 117.527 33.6364 116.934 31.629 116.264C31.3137 115.448 30.9887 114.636 30.654 113.828C29.7278 111.588 29.2598 110.458 28.4505 109.425C27.651 108.383 26.247 107.331 23.439 105.237C13.607 97.8818 6.34137 87.6219 2.67187 75.9109C-0.997635 64.1998 -0.884822 51.632 2.99433 39.9886C6.87347 28.3452 14.3221 18.2171 24.2846 11.0397C34.247 3.8624 46.2177 0 58.5 0C70.7823 0 82.753 3.8624 92.7154 11.0397C102.678 18.2171 110.127 28.3452 114.006 39.9886C117.885 51.632 117.998 64.1998 114.328 75.9109C110.659 87.6219 103.393 97.8818 93.561 105.237C90.753 107.331 89.349 108.383 88.5495 109.425C87.7562 110.438 87.3003 111.534 86.401 113.696L86.346 113.828Z" fill="#F5CB5C"/>
<path d="M46.6864 119.805L46.571 105.124C47.3112 105.515 48.0955 105.859 48.9239 106.156C51.2738 107.005 53.9234 107.419 56.8726 107.395C57.5041 107.391 58.1287 107.367 58.7463 107.325C59.2149 107.342 59.6872 107.349 60.1635 107.346C63.1126 107.322 65.7554 106.868 68.0917 105.981C68.9153 105.672 69.694 105.315 70.428 104.913L70.5449 119.772C62.6334 120.906 54.6002 120.917 46.6864 119.805Z" fill="#F5CB5C"/>
<path d="M37.5375 137.987C38.3858 143.121 38.8635 148.323 38.9805 153.554C38.9903 154.246 39.189 154.921 39.5549 155.508C39.9209 156.096 40.4404 156.572 41.0573 156.886C46.473 159.591 52.4449 161 58.5 161C64.5551 161 70.527 159.591 75.9427 156.886C76.5596 156.572 77.0791 156.096 77.4451 155.508C77.811 154.921 78.0097 154.246 78.0195 153.554C78.1365 148.323 78.6142 143.131 79.4625 137.987C65.6315 140.822 51.3685 140.822 37.5375 137.987Z" fill="#F5CB5C"/>
</svg>
